<svg width="240" height="171" viewBox="0 0 240 171" fill="none" xmlns="http://www.w3.org/2000/svg">
<g style="mix-blend-mode:luminosity">
<g style="mix-blend-mode:luminosity">
<path d="M67.8994 0.671121C62.6069 0.770953 57.4877 2.6268 52.9613 5.28251C47.6224 8.41283 42.7765 12.4838 38.0038 16.3886C36.8106 17.3631 35.6375 18.3643 34.4507 19.345C34.1377 19.6122 33.8244 19.8658 33.5109 20.126C33.0844 20.473 32.851 20.9067 32.9443 21.4075C33.0643 22.0146 33.4108 22.5154 34.1109 22.5956C34.7778 22.6758 35.4442 22.7355 36.1107 22.8022C36.1242 22.8092 36.1373 22.8092 36.1576 22.8092C37.764 22.9692 39.357 22.996 40.957 22.7155C41.1232 22.6889 41.2833 22.6758 41.4297 22.6823C42.3164 22.7089 42.7495 23.3361 42.3829 24.3309C42.1696 24.9044 42.0096 25.5054 41.7696 26.0658C40.6831 28.5756 39.6367 31.1049 38.4705 33.581C36.7836 37.172 35.1374 40.6754 32.5577 43.7126C32.538 43.7325 32.5176 43.7591 32.4846 43.7926C32.4379 43.8458 32.3914 43.9059 32.3378 43.9595C24.4522 53.103 13.2805 58.8559 5.98167 68.527C2.94887 72.5514 0.0823953 76.9762 0.00271408 82.1689C-0.017717 83.6505 0.0758559 85.152 0.329201 86.6074C0.842022 89.6304 1.86194 92.4935 3.34852 95.1902C4.8882 97.9798 6.72823 100.536 8.8547 102.898C9.46762 103.579 10.0074 104.314 10.3077 105.195C10.6408 106.156 10.8341 107.096 10.0875 107.991C9.80064 108.331 9.59471 108.738 9.36752 109.125C8.86777 110 8.97442 111.068 9.72751 111.735C10.4545 112.369 11.2141 112.99 12.0407 113.484C19.6995 118.056 28.7514 121.106 37.3373 123.395C39.0298 123.849 40.5633 122.541 40.5164 120.732C40.4497 118.169 38.3503 116.387 36.2504 115.266C33.8244 113.977 31.1311 113.37 28.5184 112.583C27.8053 112.369 27.0719 112.243 26.3453 112.075C26.3453 112.062 26.3384 112.055 26.3384 112.042C26.3253 111.996 26.3187 111.942 26.3054 111.895C26.5786 111.722 26.8585 111.555 27.1319 111.382C31.8179 108.344 36.7771 105.561 41.2162 102.171C41.5098 101.951 41.7034 101.891 42.043 101.971C44.7557 102.625 47.4692 103.272 50.1886 103.913L50.2355 103.92L51.1552 104.073C51.7024 105.869 52.2504 107.664 52.7988 109.459C53.2131 110.816 53.6457 112.173 54.0737 113.521C54.8856 116.077 55.4115 118.757 57.0909 120.929C57.5346 121.503 58.0709 122.04 58.7524 122.287C59.6841 122.624 60.6762 122.363 61.6201 122.233C62.5669 122.102 63.5234 122.044 64.473 121.913C65.7798 121.733 66.7728 121.032 67.4132 119.857C68.0196 118.757 68.0061 117.582 67.8728 116.38C67.7462 115.193 67.1729 114.225 66.3327 113.417C65.2597 112.376 63.9602 111.695 62.5268 111.288C62.2398 111.201 62.1398 111.081 62.1334 110.794C62.1267 110 62.0866 109.206 62.0667 108.412C62.0667 104.581 61.9338 100.723 61.7337 96.8988C61.3137 88.8228 62.2538 86.8275 62.3935 86.7537C62.4402 91.3124 62.8067 95.4771 63.0265 97.3455C63.4465 100.957 64.1134 104.607 64.8866 108.104C65.2066 109.559 65.5931 111.014 66.6526 112.149C67.186 112.73 67.7331 113.283 68.6528 113.217C69.8325 113.13 71.0122 113.143 72.1919 113.09C72.5453 113.077 72.912 113.023 73.2518 112.923C75.7649 112.222 76.205 108.872 75.1115 107.077C74.2249 105.622 72.8318 104.835 71.219 104.22C71.2655 103.693 71.3191 103.179 71.3523 102.659C71.6922 96.5049 71.9185 90.4447 73.1252 84.3778C74.2984 78.4515 76.0582 72.5849 78.0111 66.932C79.4044 62.8936 81.1441 58.282 80.2974 53.9638C79.7576 51.2211 78.1579 48.5313 76.8115 46.1148C75.365 43.4988 73.6586 40.749 73.7852 37.6388C73.8519 35.8635 74.5382 34.1685 75.3517 32.5798C76.0914 31.1249 76.931 29.4163 78.0445 28.2016C78.3512 27.8682 78.7112 27.5944 79.1047 27.3539C79.8911 26.8735 80.7976 26.5398 81.6241 26.2128C84.6369 25.025 87.2967 23.1029 89.9293 21.2205C92.236 19.579 94.5759 17.9302 96.5022 15.8546C98.5285 13.6723 100.022 10.9757 100.335 7.97261C100.468 6.63104 100.314 5.40976 99.5614 4.28831C98.6818 2.9668 97.0619 3.32725 95.6956 3.4275C93.8625 3.55431 92.0358 3.73434 90.2163 3.9745C88.0967 4.24166 85.7971 4.87584 83.6576 4.43478C78.3406 3.34811 73.7418 0.668253 68.2193 0.667847C68.113 0.667847 68.0068 0.669078 67.8994 0.671121ZM46.0692 95.2831L44.5494 95.2434L46.1892 93.7217C46.4292 93.4947 46.669 93.2746 46.9159 93.0544C47.3224 92.674 47.6354 92.6405 47.8757 92.9609C47.8757 92.9673 47.8821 92.9744 47.8821 92.9808C47.9487 93.0675 48.0023 93.181 48.0555 93.3147C48.2222 93.7685 48.3953 94.2152 48.5691 94.7029C48.5886 94.763 48.6152 94.8229 48.6358 94.8829C48.8085 95.3436 48.9021 95.6039 48.9021 95.6039C47.8757 95.4966 46.9624 95.4303 46.0692 95.2831Z" fill="white"/>
</g>
<g style="mix-blend-mode:luminosity">
<path d="M8.59192 109.298C8.70756 109.414 8.75986 109.477 8.75986 109.477L8.66547 109.057C8.62338 109.141 8.60213 109.225 8.59192 109.298Z" fill="white"/>
</g>
<g style="mix-blend-mode:luminosity">
<path d="M66.5594 52.2887C72.5055 62.847 62.3936 86.7537 62.3936 86.7537C62.4403 91.3123 62.8067 95.4768 63.0266 97.3455C63.4466 100.957 64.1135 104.607 64.8867 108.104C65.2066 109.559 65.5932 111.014 66.6527 112.149C67.186 112.729 67.7331 113.283 68.6529 113.217C69.8326 113.13 71.0123 113.143 72.192 113.09C72.5453 113.076 72.912 113.023 73.2519 112.923C75.7649 112.222 76.2051 108.872 75.1115 107.077C74.225 105.621 72.8319 104.834 71.2191 104.22C71.2656 103.693 71.3192 103.179 71.3524 102.659C71.6922 96.5046 71.9185 90.4446 73.1252 84.3778C74.2985 78.4515 76.0583 72.5849 78.0111 66.9317C79.4045 62.8936 81.1441 58.2817 80.2974 53.9638C79.7576 51.2208 78.1579 48.5312 76.8115 46.1148C75.365 43.4988 73.6586 40.7489 73.7853 37.6388C73.8519 35.8635 74.5383 34.1684 75.3517 32.5798C76.0915 31.1248 76.9311 29.4162 78.0446 28.2016C78.3512 27.8682 78.7112 27.5944 79.1047 27.3538C78.9597 27.2973 78.7896 27.2696 78.5954 27.2696C74.4276 27.2711 59.6804 40.0757 66.5594 52.2887Z" fill="white"/>
</g>
<g style="mix-blend-mode:luminosity">
<path d="M27.2518 83.8639C28.305 89.1165 35.2574 95.677 32.4979 102.244C30.2647 107.584 25.8653 112.049 25.8653 112.069L25.8252 112.089L26.3384 112.042C26.3254 111.996 26.3187 111.942 26.3052 111.895C26.5787 111.722 26.8585 111.555 27.132 111.381C31.818 108.344 36.7772 105.561 41.2163 102.171C41.5096 101.951 41.7034 101.891 42.043 101.971C44.7558 102.625 47.469 103.272 50.1884 103.913L50.2355 103.92L51.1553 104.073L48.9022 95.6039C47.8757 95.4966 46.9624 95.4303 46.0692 95.2831L44.5494 95.2434L46.1892 93.7217C46.4292 93.4947 46.669 93.2745 46.9159 93.0544C47.3224 92.674 47.6355 92.6405 47.8757 92.9609C45.916 88.1621 41.4432 78.3708 37.0103 76.7961C35.8986 76.3998 34.8225 76.2175 33.8147 76.2175C29.4741 76.218 26.4026 79.6017 27.2518 83.8639Z" fill="white"/>
</g>
<g style="mix-blend-mode:luminosity">
<path d="M33.5108 20.126C33.0879 20.4779 32.851 20.9067 32.9442 21.4075C33.0642 22.0146 33.4107 22.5154 34.1108 22.5956C34.7775 22.6758 35.444 22.7355 36.1104 22.8022C36.1239 22.8092 36.137 22.8092 36.1576 22.8092C37.7637 22.9692 39.357 22.996 40.9567 22.7155C41.123 22.6889 41.2833 22.6758 41.4296 22.6823C42.3162 22.7089 42.7495 23.3361 42.3828 24.3308C42.1696 24.9044 42.0093 25.5054 41.7695 26.0658C40.683 28.5756 39.6364 31.1049 38.4702 33.581C36.7835 37.1719 35.1371 40.6754 32.5576 43.7125C32.5379 43.7325 32.5176 43.7591 32.4978 43.779L32.4843 43.7926C32.4378 43.8458 32.3914 43.9061 32.3378 43.9595L32.3442 43.9792C38.1634 37.9259 53.548 21.8076 50.0882 18.1507C49.3159 17.3329 47.7722 17.0137 45.9195 17.0137C41.361 17.0137 34.9312 18.9445 33.5108 20.126Z" fill="white"/>
</g>
</g>
<path d="M17.5855 147.449V151.106H11.5728V170.041H7.04711V151.106H1.03442V147.449H17.5855ZM37.5357 160.687C37.5357 161.334 37.4925 161.917 37.4064 162.435H24.3142C24.4218 163.729 24.8744 164.744 25.6719 165.477C26.4692 166.211 27.4499 166.578 28.6136 166.578C30.2946 166.578 31.4907 165.855 32.2018 164.409H37.0831C36.5659 166.135 35.5744 167.559 34.1091 168.681C32.6436 169.782 30.8441 170.332 28.7106 170.332C26.9865 170.332 25.4348 169.955 24.0556 169.199C22.6979 168.423 21.6311 167.333 20.8552 165.93C20.101 164.528 19.7238 162.909 19.7238 161.075C19.7238 159.219 20.101 157.59 20.8552 156.188C21.6095 154.785 22.6656 153.706 24.0233 152.951C25.381 152.196 26.9433 151.818 28.7106 151.818C30.413 151.818 31.9324 152.185 33.2686 152.919C34.6263 153.652 35.6714 154.699 36.4043 156.058C37.1584 157.396 37.5357 158.939 37.5357 160.687ZM32.8484 159.392C32.8267 158.227 32.4064 157.299 31.5876 156.609C30.7686 155.896 29.7665 155.54 28.5813 155.54C27.4605 155.54 26.5124 155.886 25.7366 156.576C24.9822 157.245 24.5188 158.184 24.3466 159.392H32.8484ZM47.6921 170.332C46.2266 170.332 44.9121 170.073 43.7483 169.555C42.5846 169.016 41.6579 168.293 40.9682 167.387C40.3002 166.481 39.9338 165.477 39.8692 164.377H44.4272C44.5133 165.067 44.8474 165.639 45.4293 166.092C46.0326 166.545 46.7761 166.772 47.6598 166.772C48.5218 166.772 49.19 166.599 49.664 166.254C50.1598 165.909 50.4075 165.466 50.4075 164.927C50.4075 164.344 50.1057 163.913 49.5024 163.632C48.9205 163.33 47.9831 163.006 46.69 162.661C45.3538 162.338 44.2547 162.003 43.3927 161.658C42.5522 161.313 41.8196 160.784 41.1945 160.072C40.5912 159.36 40.2894 158.4 40.2894 157.191C40.2894 156.199 40.5695 155.292 41.1299 154.472C41.7118 153.652 42.5308 153.005 43.5867 152.53C44.6643 152.056 45.925 151.818 47.3689 151.818C49.5024 151.818 51.2048 152.358 52.4764 153.437C53.748 154.494 54.4483 155.929 54.5776 157.741H50.2459C50.1812 157.029 49.8795 156.468 49.3408 156.058C48.8235 155.627 48.1232 155.411 47.2395 155.411C46.4205 155.411 45.7849 155.562 45.3323 155.864C44.9012 156.166 44.6858 156.587 44.6858 157.126C44.6858 157.731 44.9876 158.195 45.5909 158.518C46.1943 158.82 47.1317 159.133 48.4033 159.457C49.6963 159.781 50.7631 160.115 51.6036 160.46C52.4441 160.805 53.1661 161.345 53.7695 162.079C54.3945 162.791 54.7178 163.74 54.7393 164.927C54.7393 165.963 54.4483 166.89 53.8664 167.71C53.306 168.531 52.4873 169.178 51.4096 169.652C50.3537 170.106 49.1145 170.332 47.6921 170.332ZM63.7235 155.832V164.506C63.7235 165.11 63.8635 165.553 64.1438 165.833C64.4453 166.092 64.9411 166.222 65.6308 166.222H67.732V170.041H64.8873C61.0728 170.041 59.1655 168.185 59.1655 164.474V155.832H57.032V152.11H59.1655V147.675H63.7235V152.11H67.732V155.832H63.7235ZM69.8232 161.01C69.8232 159.198 70.1788 157.59 70.89 156.188C71.6227 154.785 72.6033 153.706 73.8317 152.951C75.0816 152.196 76.4716 151.818 78.0018 151.818C79.338 151.818 80.5018 152.088 81.493 152.627C82.506 153.167 83.3141 153.846 83.9175 154.667V152.11H88.4755V170.041H83.9175V167.419C83.3356 168.261 82.5275 168.962 81.493 169.523C80.4801 170.062 79.3057 170.332 77.9695 170.332C76.461 170.332 75.0816 169.944 73.8317 169.167C72.6033 168.39 71.6227 167.301 70.89 165.898C70.1788 164.474 69.8232 162.845 69.8232 161.01ZM83.9175 161.075C83.9175 159.975 83.7021 159.036 83.271 158.259C82.8399 157.461 82.258 156.857 81.5253 156.447C80.7927 156.015 80.006 155.799 79.1655 155.799C78.325 155.799 77.5492 156.004 76.838 156.414C76.1269 156.824 75.545 157.429 75.0924 158.227C74.6613 159.004 74.4459 159.932 74.4459 161.01C74.4459 162.089 74.6613 163.039 75.0924 163.859C75.545 164.657 76.1269 165.272 76.838 165.704C77.5707 166.135 78.3465 166.351 79.1655 166.351C80.006 166.351 80.7927 166.146 81.5253 165.736C82.258 165.304 82.8399 164.7 83.271 163.924C83.7021 163.125 83.9175 162.176 83.9175 161.075ZM109.802 152.11V170.041H105.244V167.775C104.662 168.552 103.897 169.167 102.949 169.62C102.022 170.052 101.009 170.267 99.9104 170.267C98.5097 170.267 97.2705 169.976 96.1928 169.394C95.1155 168.789 94.2641 167.916 93.6391 166.772C93.0357 165.607 92.7339 164.226 92.7339 162.629V152.11H97.2596V161.981C97.2596 163.406 97.6152 164.506 98.3264 165.283C99.0376 166.038 100.007 166.416 101.236 166.416C102.486 166.416 103.466 166.038 104.177 165.283C104.889 164.506 105.244 163.406 105.244 161.981V152.11H109.802ZM121.121 170.332C119.655 170.332 118.341 170.073 117.177 169.555C116.013 169.016 115.086 168.293 114.397 167.387C113.729 166.481 113.363 165.477 113.298 164.377H117.856C117.942 165.067 118.276 165.639 118.858 166.092C119.461 166.545 120.205 166.772 121.089 166.772C121.95 166.772 122.618 166.599 123.093 166.254C123.588 165.909 123.836 165.466 123.836 164.927C123.836 164.344 123.534 163.913 122.931 163.632C122.349 163.33 121.412 163.006 120.119 162.661C118.783 162.338 117.683 162.003 116.821 161.658C115.981 161.313 115.248 160.784 114.623 160.072C114.02 159.36 113.718 158.4 113.718 157.191C113.718 156.199 113.998 155.292 114.559 154.472C115.14 153.652 115.959 153.005 117.015 152.53C118.093 152.056 119.354 151.818 120.798 151.818C122.931 151.818 124.634 152.358 125.905 153.437C127.176 154.494 127.877 155.929 128.006 157.741H123.675C123.61 157.029 123.308 156.468 122.769 156.058C122.252 155.627 121.552 155.411 120.668 155.411C119.849 155.411 119.214 155.562 118.761 155.864C118.33 156.166 118.115 156.587 118.115 157.126C118.115 157.731 118.416 158.195 119.02 158.518C119.623 158.82 120.56 159.133 121.832 159.457C123.125 159.781 124.192 160.115 125.032 160.46C125.873 160.805 126.595 161.345 127.198 162.079C127.823 162.791 128.146 163.74 128.168 164.927C128.168 165.963 127.877 166.89 127.295 167.71C126.735 168.531 125.916 169.178 124.838 169.652C123.782 170.106 122.543 170.332 121.121 170.332ZM138.736 170.332C137.271 170.332 135.956 170.073 134.792 169.555C133.628 169.016 132.702 168.293 132.012 167.387C131.344 166.481 130.978 165.477 130.913 164.377H135.471C135.557 165.067 135.891 165.639 136.473 166.092C137.077 166.545 137.82 166.772 138.704 166.772C139.566 166.772 140.234 166.599 140.708 166.254C141.204 165.909 141.451 165.466 141.451 164.927C141.451 164.344 141.15 163.913 140.546 163.632C139.964 163.33 139.027 163.006 137.734 162.661C136.398 162.338 135.299 162.003 134.437 161.658C133.596 161.313 132.863 160.784 132.238 160.072C131.635 159.36 131.333 158.4 131.333 157.191C131.333 156.199 131.614 155.292 132.174 154.472C132.756 153.652 133.575 153.005 134.631 152.53C135.708 152.056 136.969 151.818 138.413 151.818C140.546 151.818 142.249 152.358 143.52 153.437C144.792 154.494 145.492 155.929 145.622 157.741H141.29C141.225 157.029 140.924 156.468 140.385 156.058C139.867 155.627 139.167 155.411 138.283 155.411C137.465 155.411 136.829 155.562 136.376 155.864C135.945 156.166 135.73 156.587 135.73 157.126C135.73 157.731 136.031 158.195 136.635 158.518C137.238 158.82 138.176 159.133 139.447 159.457C140.74 159.781 141.807 160.115 142.648 160.46C143.488 160.805 144.21 161.345 144.813 162.079C145.438 162.791 145.762 163.74 145.783 164.927C145.783 165.963 145.492 166.89 144.91 167.71C144.35 168.531 143.531 169.178 142.454 169.652C141.398 170.106 140.158 170.332 138.736 170.332ZM166.146 160.687C166.146 161.334 166.103 161.917 166.017 162.435H152.925C153.033 163.729 153.485 164.744 154.283 165.477C155.08 166.211 156.06 166.578 157.224 166.578C158.905 166.578 160.101 165.855 160.812 164.409H165.694C165.176 166.135 164.185 167.559 162.72 168.681C161.254 169.782 159.455 170.332 157.321 170.332C155.597 170.332 154.045 169.955 152.666 169.199C151.309 168.423 150.242 167.333 149.466 165.93C148.712 164.528 148.335 162.909 148.335 161.075C148.335 159.219 148.712 157.59 149.466 156.188C150.22 154.785 151.276 153.706 152.634 152.951C153.992 152.196 155.554 151.818 157.321 151.818C159.024 151.818 160.543 152.185 161.879 152.919C163.237 153.652 164.282 154.699 165.015 156.058C165.769 157.396 166.146 158.939 166.146 160.687ZM161.459 159.392C161.438 158.227 161.017 157.299 160.198 156.609C159.379 155.896 158.377 155.54 157.192 155.54C156.071 155.54 155.123 155.886 154.347 156.576C153.593 157.245 153.13 158.184 152.957 159.392H161.459ZM173.975 154.893C174.557 153.944 175.311 153.199 176.238 152.66C177.186 152.12 178.264 151.851 179.471 151.851V156.609H178.275C176.852 156.609 175.775 156.943 175.042 157.612C174.331 158.281 173.975 159.446 173.975 161.108V170.041H169.45V152.11H173.975V154.893ZM189.986 165.866L194.512 152.11H199.329L192.702 170.041H187.206L180.612 152.11H185.461L189.986 165.866ZM218.519 160.687C218.519 161.334 218.475 161.917 218.389 162.435H205.297C205.405 163.729 205.858 164.744 206.655 165.477C207.452 166.211 208.433 166.578 209.597 166.578C211.278 166.578 212.474 165.855 213.185 164.409H218.066C217.549 166.135 216.558 167.559 215.092 168.681C213.627 169.782 211.827 170.332 209.694 170.332C207.969 170.332 206.418 169.955 205.039 169.199C203.681 168.423 202.614 167.333 201.838 165.93C201.084 164.528 200.707 162.909 200.707 161.075C200.707 159.219 201.084 157.59 201.838 156.188C202.593 154.785 203.649 153.706 205.006 152.951C206.364 152.196 207.926 151.818 209.694 151.818C211.396 151.818 212.915 152.185 214.252 152.919C215.609 153.652 216.655 154.699 217.387 156.058C218.142 157.396 218.519 158.939 218.519 160.687ZM213.831 159.392C213.81 158.227 213.39 157.299 212.571 156.609C211.752 155.896 210.749 155.54 209.564 155.54C208.444 155.54 207.495 155.886 206.72 156.576C205.965 157.245 205.502 158.184 205.33 159.392H213.831ZM226.348 154.893C226.931 153.944 227.683 153.199 228.611 152.66C229.559 152.12 230.637 151.851 231.844 151.851V156.609H230.648C229.224 156.609 228.146 156.943 227.415 157.612C226.703 158.281 226.348 159.446 226.348 161.108V170.041H221.823V152.11H226.348V154.893ZM237.186 149.973C236.389 149.973 235.721 149.725 235.183 149.229C234.665 148.711 234.405 148.075 234.405 147.319C234.405 146.564 234.665 145.938 235.183 145.442C235.721 144.924 236.389 144.665 237.186 144.665C237.984 144.665 238.641 144.924 239.159 145.442C239.697 145.938 239.967 146.564 239.967 147.319C239.967 148.075 239.697 148.711 239.159 149.229C238.641 149.725 237.984 149.973 237.186 149.973ZM239.416 152.11V170.041H234.89V152.11H239.416Z" fill="white"/>
</svg>
